# xmcd
#
# Track frame offsets:
#	150
#	16535
#	31415
#	43508
#	58523
#	76450
#	87545
#	99838
#	112003
#	133710
#	150000
#	166445
#	180228
#	195205
#	207228
#	220435
#	239420
#	252463
#	266453
#	284295
#	297653
#	317808
#
# Disc length: 4422 seconds
# Revision: 6
# Processed by: cddbd v1.5.2PL0 Copyright (c) Steve Scherf et al.
# Submitted via: dBpowerAMP V12.0
#
DISCID=2e114416
DTITLE=Various Artist - Contemporary Country The Early 80s Pure Gold
DYEAR=1992
DGENRE=Country
TTITLE0=Waylon Jennings - I Ain't Living Long Like This
TTITLE1=Ricky Skaggs - Heartbroke
TTITLE2=Gene Watson - Fourteen Carat Mind
TTITLE3=George Jones - I Always Get Lucky With You
TTITLE4=Hank Williams  Jr - All My Rowdy Friends Have Settled Down
TTITLE5=Reba McEntire - Can't Even Get The Blues
TTITLE6=Charley Pride - Night Games
TTITLE7=Ronnie Milsap - My Heart
TTITLE8=Willie Nelson and Merle Haggard - Pancho and Lefty
TTITLE9=Alabama - The Closer You Get
TTITLE10=Barbara Mandrell - I Was Country When Country Wasn't Cool
TTITLE11=John Anderson - Swingin
TTITLE12=Conway Twitty - I'd Love To Lay You Down
TTITLE13=Oak Ridge Boys The - Elvira
TTITLE14=Terri Gibbs - Somebody's Knockin
TTITLE15=Don Williams - Good Ole Boys Like Me
TTITLE16=George Strait - Amarillo By Morning
TTITLE17=Willie Nelson - My Heroes Have Always Been Cowboys
TTITLE18=David Frizzell - I'm Gonna Hire A Wino To Decorate Our Home
TTITLE19=Jerry Lee Lewis - Thirty Nine and Holding
TTITLE20=Rosanne Cash - Blue Moon With Heartache
TTITLE21=Merle Haggard - My Favorite Memory
EXTD=
EXTT0=
EXTT1=
EXTT2=
EXTT3=
EXTT4=
EXTT5=
EXTT6=
EXTT7=
EXTT8=
EXTT9=
EXTT10=
EXTT11=
EXTT12=
EXTT13=
EXTT14=
EXTT15=
EXTT16=
EXTT17=
EXTT18=
EXTT19=
EXTT20=
EXTT21=
PLAYORDER=
